<svg xmlns="http://www.w3.org/2000/svg" viewBox="0 0 32 32">
  <!-- Broken outer ring — gaps showing exposure -->
  <path d="M16 3 A13 13 0 0 1 27.3 10" fill="none" stroke="#ffffff" stroke-width="1.2" opacity="0.2"/>
  <path d="M29 16 A13 13 0 0 1 22 27.3" fill="none" stroke="#ffffff" stroke-width="1.2" opacity="0.2"/>
  <path d="M16 29 A13 13 0 0 1 4.7 22" fill="none" stroke="#ffffff" stroke-width="1.2" opacity="0.2"/>
  <path d="M3 16 A13 13 0 0 1 10 4.7" fill="none" stroke="#ffffff" stroke-width="1.2" opacity="0.2"/>
  <!-- Mid ring — also broken -->
  <path d="M16 7 A9 9 0 0 1 24 12" fill="none" stroke="#ffffff" stroke-width="1" opacity="0.3"/>
  <path d="M16 25 A9 9 0 0 1 8 20" fill="none" stroke="#ffffff" stroke-width="1" opacity="0.3"/>
  <!-- Core glow — visible, vulnerable -->
  <circle cx="16" cy="16" r="4.5" fill="#ffffff" opacity="0.3"/>
  <circle cx="16" cy="16" r="2.5" fill="#ffffff" opacity="0.6"/>
  <circle cx="16" cy="16" r="1.2" fill="#ffffff"/>
  <!-- Scatter dots — components leaking to sides -->
  <circle cx="5" cy="14" r="1.2" fill="#ffffff" opacity="0.5"/>
  <circle cx="4" cy="18" r="0.8" fill="#ffffff" opacity="0.4"/>
  <circle cx="27" cy="14" r="1.2" fill="#ffffff" opacity="0.5"/>
  <circle cx="28" cy="18" r="0.8" fill="#ffffff" opacity="0.4"/>
  <!-- Connecting lines to side components -->
  <path d="M12 15 L6.5 14" stroke="#ffffff" stroke-width="0.7" fill="none" opacity="0.25"/>
  <path d="M12 17.5 L5.5 18" stroke="#ffffff" stroke-width="0.7" fill="none" opacity="0.25"/>
  <path d="M20 15 L25.5 14" stroke="#ffffff" stroke-width="0.7" fill="none" opacity="0.25"/>
  <path d="M20 17.5 L26.5 18" stroke="#ffffff" stroke-width="0.7" fill="none" opacity="0.25"/>
</svg>