<svg xmlns="http://www.w3.org/2000/svg" viewBox="0 0 32 32">
  <!-- Outer energy ring — pulsing -->
  <circle cx="16" cy="16" r="13" fill="none" stroke="#ffffff" stroke-width="1.5" opacity="0.25"/>
  <!-- Mid ring -->
  <circle cx="16" cy="16" r="9" fill="none" stroke="#ffffff" stroke-width="1.5" opacity="0.4"/>
  <!-- Core — bright, overcharged -->
  <circle cx="16" cy="16" r="5.5" fill="#ffffff" opacity="0.4"/>
  <circle cx="16" cy="16" r="3.5" fill="#ffffff" opacity="0.7"/>
  <circle cx="16" cy="16" r="2" fill="#ffffff" opacity="1.0"/>
  <!-- Intense heat lines — 6 directions, aggressive -->
  <!-- Top -->
  <path d="M15 11 Q13.5 8 15 5.5 Q16 4 14.5 2.5" stroke="#ffffff" stroke-width="1.5" fill="none" opacity="0.6"/>
  <path d="M17 11 Q18.5 8 17 5.5 Q16 4 17.5 2.5" stroke="#ffffff" stroke-width="1.2" fill="none" opacity="0.45"/>
  <!-- Bottom -->
  <path d="M15 21 Q13.5 24 15 26.5 Q16 28 14.5 29.5" stroke="#ffffff" stroke-width="1.5" fill="none" opacity="0.6"/>
  <path d="M17 21 Q18.5 24 17 26.5 Q16 28 17.5 29.5" stroke="#ffffff" stroke-width="1.2" fill="none" opacity="0.45"/>
  <!-- Left -->
  <path d="M11 15 Q8 13.5 5.5 15 Q4 16 2.5 14.5" stroke="#ffffff" stroke-width="1.3" fill="none" opacity="0.5"/>
  <!-- Right -->
  <path d="M21 17 Q24 18.5 26.5 17 Q28 16 29.5 17.5" stroke="#ffffff" stroke-width="1.3" fill="none" opacity="0.5"/>
</svg>