<svg xmlns="http://www.w3.org/2000/svg" viewBox="0 0 32 32">
  <!-- Outer ring — uneven, patched -->
  <path d="M16 3 A13 13 0 0 1 29 16" fill="none" stroke="#ffffff" stroke-width="1.5" opacity="0.2"/>
  <path d="M29 16 A13 13 0 0 1 22 27" fill="none" stroke="#ffffff" stroke-width="1" opacity="0.15"/>
  <path d="M22 27 A13 13 0 0 1 10 27" fill="none" stroke="#ffffff" stroke-width="2" opacity="0.25"/>
  <path d="M10 27 A13 13 0 0 1 3 16" fill="none" stroke="#ffffff" stroke-width="1" opacity="0.15"/>
  <path d="M3 16 A13 13 0 0 1 16 3" fill="none" stroke="#ffffff" stroke-width="1.5" opacity="0.2"/>
  <!-- Mid ring — dented, offset slightly -->
  <ellipse cx="16.5" cy="15.5" rx="9" ry="8.5" fill="none" stroke="#ffffff" stroke-width="1.2" opacity="0.3"/>
  <!-- Core — dim, unreliable -->
  <circle cx="16" cy="16" r="4.5" fill="#ffffff" opacity="0.2"/>
  <circle cx="16" cy="16" r="2.5" fill="#ffffff" opacity="0.4"/>
  <circle cx="16" cy="16" r="1.2" fill="#ffffff" opacity="0.7"/>
  <!-- Uneven heat lines — sputtering -->
  <path d="M19 13 Q21 11.5 20 9.5" stroke="#ffffff" stroke-width="1.2" fill="none" opacity="0.35"/>
  <path d="M13 19 Q11 21 12 23.5 Q13 24.5 11.5 26" stroke="#ffffff" stroke-width="1" fill="none" opacity="0.3"/>
  <!-- Patch marks — rough repair spots -->
  <line x1="24" y1="8" x2="26" y2="6" stroke="#ffffff" stroke-width="1.2" opacity="0.3"/>
  <line x1="25" y1="8" x2="25" y2="6" stroke="#ffffff" stroke-width="0.8" opacity="0.25"/>
</svg>