<svg xmlns="http://www.w3.org/2000/svg" viewBox="0 0 32 32">
  <!-- Outer energy ring -->
  <circle cx="16" cy="16" r="13" fill="none" stroke="#ffffff" stroke-width="1.5" opacity="0.2"/>
  <!-- Mid energy ring -->
  <circle cx="16" cy="16" r="9" fill="none" stroke="#ffffff" stroke-width="1.5" opacity="0.4"/>
  <!-- Inner core glow -->
  <circle cx="16" cy="16" r="5" fill="#ffffff" opacity="0.3"/>
  <circle cx="16" cy="16" r="3" fill="#ffffff" opacity="0.6"/>
  <circle cx="16" cy="16" r="1.5" fill="#ffffff"/>
  <!-- Wavy heat lines at 45 degree diagonals -->
  <!-- Top-right -->
  <path d="M19 13 Q21 11 19.5 9 Q18 7 20 5" stroke="#ffffff" stroke-width="1.3" fill="none" opacity="0.5"/>
  <path d="M21.5 7 Q20 5.5 22 4" stroke="#ffffff" stroke-width="1" fill="none" opacity="0.25"/>
  <!-- Top-left -->
  <path d="M13 13 Q11 11 12.5 9 Q14 7 12 5" stroke="#ffffff" stroke-width="1.3" fill="none" opacity="0.5"/>
  <path d="M10.5 7 Q12 5.5 10 4" stroke="#ffffff" stroke-width="1" fill="none" opacity="0.25"/>
  <!-- Bottom-right -->
  <path d="M19 19 Q21 21 19.5 23 Q18 25 20 27" stroke="#ffffff" stroke-width="1.3" fill="none" opacity="0.5"/>
  <path d="M21.5 25 Q20 26.5 22 28" stroke="#ffffff" stroke-width="1" fill="none" opacity="0.25"/>
  <!-- Bottom-left -->
  <path d="M13 19 Q11 21 12.5 23 Q14 25 12 27" stroke="#ffffff" stroke-width="1.3" fill="none" opacity="0.5"/>
  <path d="M10.5 25 Q12 26.5 10 28" stroke="#ffffff" stroke-width="1" fill="none" opacity="0.25"/>
</svg>