<svg xmlns="http://www.w3.org/2000/svg" viewBox="0 0 32 32">
  <!-- Gear/cog badge (top-right) -->
  <circle cx="27" cy="5" r="2.5" fill="#ffffff" opacity="0.5"/>
  <circle cx="27" cy="5" r="1" fill="#000000" opacity="0.9"/>
  <rect x="25.8" y="1" width="2.4" height="1.5" rx="0.3" fill="#ffffff" opacity="0.7"/>
  <rect x="25.8" y="7.5" width="2.4" height="1.5" rx="0.3" fill="#ffffff" opacity="0.7"/>
  <rect x="23" y="3.8" width="1.5" height="2.4" rx="0.3" fill="#ffffff" opacity="0.7"/>
  <rect x="29.5" y="3.8" width="1.5" height="2.4" rx="0.3" fill="#ffffff" opacity="0.7"/>
  <rect x="23.5" y="1.8" width="1.5" height="1.5" rx="0.3" fill="#ffffff" opacity="0.7" transform="rotate(-45, 24.25, 2.55)"/>
  <rect x="29" y="1.8" width="1.5" height="1.5" rx="0.3" fill="#ffffff" opacity="0.7" transform="rotate(45, 29.75, 2.55)"/>
  <rect x="23.5" y="6.7" width="1.5" height="1.5" rx="0.3" fill="#ffffff" opacity="0.7" transform="rotate(45, 24.25, 7.45)"/>
  <rect x="29" y="6.7" width="1.5" height="1.5" rx="0.3" fill="#ffffff" opacity="0.7" transform="rotate(-45, 29.75, 7.45)"/>

  <!-- Muzzle flash -->
  <circle cx="8" cy="16" r="6" fill="#ffffff" opacity="0.3"/>
  <circle cx="8" cy="16" r="3.5" fill="#ffffff" opacity="0.6"/>
  <circle cx="8" cy="16" r="1.5" fill="#ffffff"/>
  <!-- Two wide shell dashes -->
  <rect x="15" y="13" width="7" height="6" rx="1.5" fill="#ffffff" opacity="0.9"/>
  <rect x="24" y="13" width="7" height="6" rx="1.5" fill="#ffffff" opacity="0.7"/>
</svg>