<?xml version="1.0" encoding="UTF-8" standalone="no"?>
<!-- Created with Inkscape (http://www.inkscape.org/) -->

<svg
   width="400"
   height="400"
   viewBox="0 0 98.050559 98.050559"
   version="1.1"
   id="svg1"
   inkscape:version="1.3.2 (091e20e, 2023-11-25, custom)"
   sodipodi:docname="icons.svg"
   inkscape:export-filename="srm.svg"
   inkscape:export-xdpi="96"
   inkscape:export-ydpi="96"
   xmlns:inkscape="http://www.inkscape.org/namespaces/inkscape"
   xmlns:sodipodi="http://sodipodi.sourceforge.net/DTD/sodipodi-0.dtd"
   xmlns="http://www.w3.org/2000/svg"
   xmlns:svg="http://www.w3.org/2000/svg">
  <sodipodi:namedview
     id="namedview1"
     pagecolor="#353535"
     bordercolor="#000000"
     borderopacity="0.25"
     inkscape:showpageshadow="true"
     inkscape:pageopacity="0.0"
     inkscape:pagecheckerboard="true"
     inkscape:deskcolor="#d1d1d1"
     inkscape:document-units="px"
     showborder="true"
     borderlayer="true"
     labelstyle="default"
     inkscape:clip-to-page="false"
     inkscape:zoom="0.51090418"
     inkscape:cx="1346.6322"
     inkscape:cy="208.45396"
     inkscape:window-width="3440"
     inkscape:window-height="1361"
     inkscape:window-x="1911"
     inkscape:window-y="-9"
     inkscape:window-maximized="1"
     inkscape:current-layer="layer1"
     inkscape:export-bgcolor="#ffffff00" />
  <defs
     id="defs1">
    <inkscape:perspective
       sodipodi:type="inkscape:persp3d"
       inkscape:vp_x="0 : 49.025279 : 1"
       inkscape:vp_y="0 : 1000 : 0"
       inkscape:vp_z="98.050559 : 49.025279 : 1"
       inkscape:persp3d-origin="49.025279 : 32.68352 : 1"
       id="perspective21" />
  </defs>
  <g
     inkscape:label="SRM"
     inkscape:groupmode="layer"
     id="layer1"
     inkscape:export-filename="srm.svg"
     inkscape:export-xdpi="96"
     inkscape:export-ydpi="96">
    <path
       d="m 9.3075259,38.031238 c -1.101886,0.284572 -1.9404376,0.855112 -2.4553027,1.671021 -1.8930808,2.999713 0.955317,8.527203 6.3621588,12.345569 1.663103,1.161293 3.442199,2.067017 5.170452,2.632677 l 40.669673,28.44079 -1.649357,7.849639 0.930698,0.680031 4.213936,-6.404225 5.56215,-8.049752 3.947138,-5.287511 -1.184047,-1.486343 -6.137177,4.066227 -39.636091,-28.295753 c -1.242593,-1.822332 -3.002082,-3.572004 -5.032841,-5.00782 -3.760555,-2.655839 -7.94331,-3.881781 -10.7614429,-3.15448 z"
       style="fill:#ffffff;stroke-width:0.464816"
       id="path3-0-9-4"
       sodipodi:nodetypes="cccccccccccccccc" />
    <path
       d="m 18.999093,23.254429 c -1.101886,0.284572 -1.940438,0.855112 -2.455303,1.671021 -1.893081,2.999713 0.955317,8.527203 6.362159,12.345569 1.663103,1.161293 3.442199,2.067017 5.170452,2.632677 l 40.669673,28.44079 -1.649357,7.849639 0.930698,0.680031 4.213936,-6.404225 5.56215,-8.049752 3.947138,-5.287511 -1.184047,-1.486343 -6.137177,4.066227 -39.636091,-28.295753 c -1.242593,-1.822332 -3.002082,-3.572004 -5.032841,-5.00782 -3.760555,-2.655839 -7.94331,-3.881781 -10.761443,-3.15448 z"
       style="fill:#ffffff;stroke-width:0.464816"
       id="path3-0-9-4-6"
       sodipodi:nodetypes="cccccccccccccccc" />
    <path
       d="m 29.717024,7.1340152 c -1.101886,0.284572 -1.940438,0.855112 -2.455303,1.671021 -1.893081,2.9997128 0.955317,8.5272028 6.362159,12.3455688 1.663103,1.161293 3.442199,2.067017 5.170452,2.632677 l 40.669673,28.44079 -1.649357,7.849639 0.930698,0.680031 4.213936,-6.404225 5.56215,-8.049752 3.947138,-5.287511 -1.184047,-1.486343 -6.137177,4.066227 L 45.511255,15.296385 C 44.268662,13.474053 42.509173,11.724381 40.478414,10.288565 36.717859,7.6327262 32.535104,6.4067842 29.716971,7.1340852 Z"
       style="fill:#ffffff;stroke-width:0.464816"
       id="path3-0-9-4-6-8"
       sodipodi:nodetypes="cccccccccccccccc" />
  </g>
</svg>
