<svg xmlns="http://www.w3.org/2000/svg" viewBox="0 0 32 32">
  <!-- Fuselage body -->
  <path d="M16 2 L20 10 L20 20 L16 24 L12 20 L12 10 Z" fill="#ffffff" opacity="0.45"/>
  <!-- Canopy -->
  <path d="M16 3 L18 8 L14 8 Z" fill="#ffffff" opacity="0.7"/>
  <!-- Left wing -->
  <path d="M12 13 L2 18 L3 20 L12 17 Z" fill="#ffffff" opacity="0.5"/>
  <!-- Right wing -->
  <path d="M20 13 L30 18 L29 20 L20 17 Z" fill="#ffffff" opacity="0.5"/>
  <!-- Wing tips -->
  <circle cx="2" cy="19" r="1" fill="#ffffff" opacity="0.4"/>
  <circle cx="30" cy="19" r="1" fill="#ffffff" opacity="0.4"/>
  <!-- Tail fins -->
  <path d="M14 20 L10 24 L12 24 L15 21 Z" fill="#ffffff" opacity="0.35"/>
  <path d="M18 20 L22 24 L20 24 L17 21 Z" fill="#ffffff" opacity="0.35"/>
  <!-- Thruster exhaust -->
  <path d="M14 24 Q15 27 16 30 Q17 27 18 24" fill="#ffffff" opacity="0.5"/>
  <path d="M15 24 Q15.5 26 16 28 Q16.5 26 17 24" fill="#ffffff" opacity="0.8"/>
</svg>