<svg xmlns="http://www.w3.org/2000/svg" viewBox="0 0 32 32">
  <!-- Wrench 1 (bottom-left to top-right) — full single path -->
  <path d="M5 27 Q3 29 5 31 Q7 31 8 29 L18 19 L22 15
           L24 13 L26 11 Q28 9 28 6 L28 4 L25 4 L25 7
           Q25 9 23 10 L21 12 L19 14 L15 18 Z"
        fill="#ffffff" opacity="0.6"/>
  <!-- Wrench 1 jaw notch -->
  <path d="M25 4 L28 4 L28 6 Q27.5 7.5 26 7 L25 7 Z" fill="#ffffff" opacity="0.25"/>

  <!-- Wrench 2 (top-left to bottom-right) — full single path -->
  <path d="M4 6 L4 4 L7 4 Q9 4 10 6 L12 8 L14 10
           L18 14 L24 20 Q25 21 27 23 Q29 25 27 27
           Q25 29 23 27 L13 17 L11 15 L9 13
           Q7 11 6 9 L4 7 Z"
        fill="#ffffff" opacity="0.45"/>
  <!-- Wrench 2 jaw notch -->
  <path d="M4 4 L7 4 Q8 4.5 7 6 L6 7 L4 7 Z" fill="#ffffff" opacity="0.2"/>

  <!-- Sparks at center intersection -->
  <circle cx="16" cy="16" r="1.2" fill="#ffffff" opacity="0.9"/>
  <line x1="16" y1="12" x2="16" y2="13.5" stroke="#ffffff" stroke-width="0.8" opacity="0.6"/>
  <line x1="16" y1="18.5" x2="16" y2="20" stroke="#ffffff" stroke-width="0.8" opacity="0.6"/>
  <line x1="12" y1="16" x2="13.5" y2="16" stroke="#ffffff" stroke-width="0.8" opacity="0.6"/>
  <line x1="18.5" y1="16" x2="20" y2="16" stroke="#ffffff" stroke-width="0.8" opacity="0.6"/>
  <line x1="13.5" y1="13.5" x2="14.3" y2="14.3" stroke="#ffffff" stroke-width="0.7" opacity="0.4"/>
  <line x1="17.7" y1="17.7" x2="18.5" y2="18.5" stroke="#ffffff" stroke-width="0.7" opacity="0.4"/>
  <line x1="18.5" y1="13.5" x2="17.7" y2="14.3" stroke="#ffffff" stroke-width="0.7" opacity="0.4"/>
  <line x1="14.3" y1="17.7" x2="13.5" y2="18.5" stroke="#ffffff" stroke-width="0.7" opacity="0.4"/>
</svg>