<svg xmlns="http://www.w3.org/2000/svg" viewBox="0 0 32 32">
  <!-- Many small scattered dashes - chaotic swarm -->
  <rect x="1" y="14" width="4" height="1.8" rx="0.5" fill="#ffffff" opacity="0.4"/>
  <rect x="4" y="8" width="4" height="1.8" rx="0.5" fill="#ffffff" opacity="0.3"/>
  <rect x="3" y="22" width="4" height="1.8" rx="0.5" fill="#ffffff" opacity="0.3"/>
  <rect x="6" y="17" width="4" height="1.8" rx="0.5" fill="#ffffff" opacity="0.5"/>
  <rect x="8" y="4" width="4" height="1.8" rx="0.5" fill="#ffffff" opacity="0.3"/>
  <rect x="7" y="11" width="4" height="1.8" rx="0.5" fill="#ffffff" opacity="0.5"/>
  <rect x="9" y="26" width="4" height="1.8" rx="0.5" fill="#ffffff" opacity="0.3"/>
  <rect x="10" y="20" width="4" height="1.8" rx="0.5" fill="#ffffff" opacity="0.5"/>
  <!-- Scattered small booms -->
  <circle cx="20" cy="6" r="2.5" fill="#ffffff" opacity="0.2"/>
  <circle cx="20" cy="6" r="1.2" fill="#ffffff" opacity="0.5"/>
  <circle cx="26" cy="12" r="2.5" fill="#ffffff" opacity="0.2"/>
  <circle cx="26" cy="12" r="1.2" fill="#ffffff" opacity="0.5"/>
  <circle cx="19" cy="16" r="2.5" fill="#ffffff" opacity="0.2"/>
  <circle cx="19" cy="16" r="1.2" fill="#ffffff" opacity="0.5"/>
  <circle cx="27" cy="21" r="2.5" fill="#ffffff" opacity="0.2"/>
  <circle cx="27" cy="21" r="1.2" fill="#ffffff" opacity="0.5"/>
  <circle cx="21" cy="26" r="2.5" fill="#ffffff" opacity="0.2"/>
  <circle cx="21" cy="26" r="1.2" fill="#ffffff" opacity="0.5"/>
</svg>