<svg xmlns="http://www.w3.org/2000/svg" viewBox="0 0 32 32">
  <!-- Eldritch tendrils -->
  <path d="M3 3 Q6 7 4 11" stroke="#ffffff" stroke-width="0.7" fill="none" opacity="0.25"/>
  <path d="M2 28 Q5 24 3 21" stroke="#ffffff" stroke-width="0.7" fill="none" opacity="0.2"/>
  <path d="M29 27 Q26 23 28 20" stroke="#ffffff" stroke-width="0.7" fill="none" opacity="0.2"/>
  <!-- 3 horizontal wavy heat lines -->
  <path d="M2 11 Q5 9 8 11 Q11 13 14 11 Q17 9 20 11" stroke="#ffffff" stroke-width="1.8" fill="none" opacity="0.5"/>
  <path d="M2 16 Q5 14 8 16 Q11 18 14 16 Q17 14 20 16" stroke="#ffffff" stroke-width="1.8" fill="none" opacity="0.7"/>
  <path d="M2 21 Q5 19 8 21 Q11 23 14 21 Q17 19 20 21" stroke="#ffffff" stroke-width="1.8" fill="none" opacity="0.5"/>
  <!-- Impact burst -->
  <circle cx="26" cy="16" r="6" fill="#ffffff" opacity="0.3"/>
  <circle cx="26" cy="16" r="3.5" fill="#ffffff" opacity="0.6"/>
  <circle cx="26" cy="16" r="1.5" fill="#ffffff"/>
  <!-- Slit eye -->
  <ellipse cx="27" cy="5" rx="2.5" ry="3.5" fill="#ffffff" opacity="0.2"/>
  <ellipse cx="27" cy="5" rx="0.6" ry="2.5" fill="#ffffff" opacity="0.5"/>
</svg>